PathFileType	4	(X/Y/Z)	C:/Users/dbak576/Desktop/Duncan Bakke Modelling Files/H22s1/Static_H22s1.trc	
DataRate	CameraRate	NumFrames	NumMarkers	Units	OrigDataRate	OrigDataStartFrame	OrigNumFrames	
200.00	200.00	2	240	mm	200.00	269	37	
Frame#	Time	LFEO			LFEA			LFEL			LFEP			LTIO			LTIA			LTIL			LTIP			PELO			PELA			PELL			PELP			RFEO			RFEA			RFEL			RFEP			RTIO			RTIA			RTIL			RTIP			LFHD			RFHD			LBHD			RBHD			C7			T10			CLAV			STRN			RBack			LASI			RASI			LPSI			RPSI			RACR1			RUA1			RElbow			RElbowM			RFA1			RWRR			RWRU			RCAR			LACR1			LUA1			LElbow			LElbowM			LFA1			LWRR			LWRU			LCAR			RTH1			RTH3			RTH2			RTH4			RLFC			RMFC			RTB1			RTB3			RTB2			RTB4			RLMAL			RMMAL			RCAL			RMT1			RMT5			RToe			LTH1			LTH3			LTH2			LTH4			LLFC			LMFC			LTB1			LTB3			LTB2			LTB4			LLMAL			LMMAL			LCAL			LMT1			LMT5			LToe			CX			LAJC			LFEM1			LFEM10			LFEM11			LFEM12			LFEM13			LFEM14			LFEM15			LFEM16			LFEM2			LFEM3			LFEM4			LFEM5			LFEM6			LFEM7			LFEM8			LFEM9			LFOO1			LFOO2			LFOO3			LFOO4			LFOO5			LFOO6			LHJC			LIC			LIP			LIS			LIT			LKJC			LSI			LTIB1			LTIB10			LTIB11			LTIB12			LTIB13			LTIB14			LTIB15			LTIB16			LTIB2			LTIB3			LTIB4			LTIB5			LTIB6			LTIB7			LTIB8			LTIB9			LeftThighOrigin			LeftTibOrigin			LowerBodyModelVer			LowerTorsoOrigin			MidHJC			MidPelvis			OAnatomy			OCalRig			OHead			OLeftFemur			OLeftFoot			OLeftTibia			OPelvis			ORightFemur			ORightFoot			ORightTibia			OThorax			Oglobal			PELOrigin			RAJC			RFEM1			RFEM10			RFEM11			RFEM12			RFEM13			RFEM14			RFEM15			RFEM16			RFEM2			RFEM3			RFEM4			RFEM5			RFEM6			RFEM7			RFEM8			RFEM9			RFOO1			RFOO2			RFOO3			RFOO4			RFOO5			RFOO6			RHJC			RIC			RIP			RIS			RIT			RKJC			RSI			RTIB1			RTIB10			RTIB11			RTIB12			RTIB13			RTIB14			RTIB15			RTIB16			RTIB2			RTIB3			RTIB4			RTIB5			RTIB6			RTIB7			RTIB8			RTIB9			RightThighOrigin			RightTibOrigin			SACR			SP			ThoraxOrigin			XAnatomy			XCalRig			XHead			XLeftFemur			XLeftFoot			XLeftTibia			XPelvis			XRightFemur			XRightFoot			XRightTibia			XThorax			Xglobal			YAnatomy			YCalRig			YHead			YLeftFemur			YLeftFoot			YLeftTibia			YPelvis			YRightFemur			YRightFoot			YRightTibia			YThorax			Yglobal			ZAnatomy			ZCalRig			ZHead			ZLeftFemur			ZLeftFoot			ZLeftTibia			ZPelvis			ZRightFemur			ZRightFoot			ZRightTibia			ZThorax			Zglobal			avPEL			avTHOR			newLfootmid			newLfootside			newRfootmid			newRfootside			
		X1	Y1	Z1	X2	Y2	Z2	X3	Y3	Z3	X4	Y4	Z4	X5	Y5	Z5	X6	Y6	Z6	X7	Y7	Z7	X8	Y8	Z8	X9	Y9	Z9	X10	Y10	Z10	X11	Y11	Z11	X12	Y12	Z12	X13	Y13	Z13	X14	Y14	Z14	X15	Y15	Z15	X16	Y16	Z16	X17	Y17	Z17	X18	Y18	Z18	X19	Y19	Z19	X20	Y20	Z20	X21	Y21	Z21	X22	Y22	Z22	X23	Y23	Z23	X24	Y24	Z24	X25	Y25	Z25	X26	Y26	Z26	X27	Y27	Z27	X28	Y28	Z28	X29	Y29	Z29	X30	Y30	Z30	X31	Y31	Z31	X32	Y32	Z32	X33	Y33	Z33	X34	Y34	Z34	X35	Y35	Z35	X36	Y36	Z36	X37	Y37	Z37	X38	Y38	Z38	X39	Y39	Z39	X40	Y40	Z40	X41	Y41	Z41	X42	Y42	Z42	X43	Y43	Z43	X44	Y44	Z44	X45	Y45	Z45	X46	Y46	Z46	X47	Y47	Z47	X48	Y48	Z48	X49	Y49	Z49	X50	Y50	Z50	X51	Y51	Z51	X52	Y52	Z52	X53	Y53	Z53	X54	Y54	Z54	X55	Y55	Z55	X56	Y56	Z56	X57	Y57	Z57	X58	Y58	Z58	X59	Y59	Z59	X60	Y60	Z60	X61	Y61	Z61	X62	Y62	Z62	X63	Y63	Z63	X64	Y64	Z64	X65	Y65	Z65	X66	Y66	Z66	X67	Y67	Z67	X68	Y68	Z68	X69	Y69	Z69	X70	Y70	Z70	X71	Y71	Z71	X72	Y72	Z72	X73	Y73	Z73	X74	Y74	Z74	X75	Y75	Z75	X76	Y76	Z76	X77	Y77	Z77	X78	Y78	Z78	X79	Y79	Z79	X80	Y80	Z80	X81	Y81	Z81	X82	Y82	Z82	X83	Y83	Z83	X84	Y84	Z84	X85	Y85	Z85	X86	Y86	Z86	X87	Y87	Z87	X88	Y88	Z88	X89	Y89	Z89	X90	Y90	Z90	X91	Y91	Z91	X92	Y92	Z92	X93	Y93	Z93	X94	Y94	Z94	X95	Y95	Z95	X96	Y96	Z96	X97	Y97	Z97	X98	Y98	Z98	X99	Y99	Z99	X100	Y100	Z100	X101	Y101	Z101	X102	Y102	Z102	X103	Y103	Z103	X104	Y104	Z104	X105	Y105	Z105	X106	Y106	Z106	X107	Y107	Z107	X108	Y108	Z108	X109	Y109	Z109	X110	Y110	Z110	X111	Y111	Z111	X112	Y112	Z112	X113	Y113	Z113	X114	Y114	Z114	X115	Y115	Z115	X116	Y116	Z116	X117	Y117	Z117	X118	Y118	Z118	X119	Y119	Z119	X120	Y120	Z120	X121	Y121	Z121	X122	Y122	Z122	X123	Y123	Z123	X124	Y124	Z124	X125	Y125	Z125	X126	Y126	Z126	X127	Y127	Z127	X128	Y128	Z128	X129	Y129	Z129	X130	Y130	Z130	X131	Y131	Z131	X132	Y132	Z132	X133	Y133	Z133	X134	Y134	Z134	X135	Y135	Z135	X136	Y136	Z136	X137	Y137	Z137	X138	Y138	Z138	X139	Y139	Z139	X140	Y140	Z140	X141	Y141	Z141	X142	Y142	Z142	X143	Y143	Z143	X144	Y144	Z144	X145	Y145	Z145	X146	Y146	Z146	X147	Y147	Z147	X148	Y148	Z148	X149	Y149	Z149	X150	Y150	Z150	X151	Y151	Z151	X152	Y152	Z152	X153	Y153	Z153	X154	Y154	Z154	X155	Y155	Z155	X156	Y156	Z156	X157	Y157	Z157	X158	Y158	Z158	X159	Y159	Z159	X160	Y160	Z160	X161	Y161	Z161	X162	Y162	Z162	X163	Y163	Z163	X164	Y164	Z164	X165	Y165	Z165	X166	Y166	Z166	X167	Y167	Z167	X168	Y168	Z168	X169	Y169	Z169	X170	Y170	Z170	X171	Y171	Z171	X172	Y172	Z172	X173	Y173	Z173	X174	Y174	Z174	X175	Y175	Z175	X176	Y176	Z176	X177	Y177	Z177	X178	Y178	Z178	X179	Y179	Z179	X180	Y180	Z180	X181	Y181	Z181	X182	Y182	Z182	X183	Y183	Z183	X184	Y184	Z184	X185	Y185	Z185	X186	Y186	Z186	X187	Y187	Z187	X188	Y188	Z188	X189	Y189	Z189	X190	Y190	Z190	X191	Y191	Z191	X192	Y192	Z192	X193	Y193	Z193	X194	Y194	Z194	X195	Y195	Z195	X196	Y196	Z196	X197	Y197	Z197	X198	Y198	Z198	X199	Y199	Z199	X200	Y200	Z200	X201	Y201	Z201	X202	Y202	Z202	X203	Y203	Z203	X204	Y204	Z204	X205	Y205	Z205	X206	Y206	Z206	X207	Y207	Z207	X208	Y208	Z208	X209	Y209	Z209	X210	Y210	Z210	X211	Y211	Z211	X212	Y212	Z212	X213	Y213	Z213	X214	Y214	Z214	X215	Y215	Z215	X216	Y216	Z216	X217	Y217	Z217	X218	Y218	Z218	X219	Y219	Z219	X220	Y220	Z220	X221	Y221	Z221	X222	Y222	Z222	X223	Y223	Z223	X224	Y224	Z224	X225	Y225	Z225	X226	Y226	Z226	X227	Y227	Z227	X228	Y228	Z228	X229	Y229	Z229	X230	Y230	Z230	X231	Y231	Z231	X232	Y232	Z232	X233	Y233	Z233	X234	Y234	Z234	X235	Y235	Z235	X236	Y236	Z236	X237	Y237	Z237	X238	Y238	Z238	X239	Y239	Z239	X240	Y240	Z240	

14	0.065	-97.02213	-462.42731	458.06213	220.94803	-462.54477	449.22388	-97.16256	-144.46967	448.78494	-88.18422	-453.14978	775.89697	-156.25104	-481.20633	71.55143	193.03949	-481.83182	25.54190	-164.75500	-123.93500	2.13480	-109.47012	-411.27374	425.74738	-6.43083	-370.90463	882.34076	231.83537	-370.95352	881.75092	-6.39138	-172.34955	881.81537	-5.93921	-370.37936	1080.89526	122.55709	-459.99130	457.64456	456.61856	-459.99542	457.56540	122.56118	-125.92990	457.55646	122.63627	-459.90320	791.70593	172.88167	-462.58237	68.77565	533.69495	-462.53827	121.55840	165.94014	-101.05634	115.92461	120.55734	-510.23956	426.49512	-51.03831	-419.17767	1531.62000	26.68258	-419.43884	1535.71021	-82.21988	-582.85321	1481.84167	40.68446	-590.77930	1479.68445	-14.35293	-574.49957	1345.73511	-7.41464	-565.71082	1081.38928	-12.30908	-433.16406	1298.25928	-12.97805	-360.03290	1196.26782	132.55939	-561.05450	1258.02271	-160.74733	-381.64243	870.77112	147.88567	-360.16675	893.91034	-37.10590	-579.17578	898.57660	57.44703	-582.89355	901.43262	121.70148	-483.92554	1326.02710	257.60297	-431.06516	1310.87646	381.91064	-372.49088	1277.33264	356.78394	-288.95303	1231.10608	484.30472	-306.96774	1265.63867	568.31744	-243.63504	1348.88916	577.44867	-228.86456	1277.58740	624.29877	-235.34702	1314.74707	-165.06116	-481.64145	1312.81470	-292.88519	-397.37866	1275.34351	-365.30576	-309.11230	1242.29004	-335.34897	-254.30530	1213.97363	-462.59314	-238.47916	1251.31287	-549.39075	-138.21562	1323.28088	-558.00592	-150.25331	1251.40198	-605.24542	-128.94254	1289.61462	230.88300	-440.26337	744.54913	203.25713	-459.09616	561.84900	186.43504	-379.67062	654.96075	215.85977	-450.15646	656.27643	200.34033	-451.34753	465.42551	44.77384	-468.63501	449.86353	138.82817	-427.25168	332.81876	166.03079	-430.28387	149.07863	219.21838	-463.72412	251.35339	154.80534	-435.00497	240.75452	216.39760	-467.06808	70.20348	137.09091	-458.89850	68.43196	191.14836	-521.02039	39.93257	164.60689	-365.17322	45.99412	220.20442	-387.82053	37.11544	175.72754	-306.70227	27.75226	-200.52501	-413.23148	759.15613	-174.52541	-425.74521	570.83942	-145.14149	-355.77762	669.85272	-187.76591	-415.97437	665.28180	-177.19022	-466.22177	466.26794	-16.85404	-458.63284	449.85635	-123.57481	-430.16992	347.43185	-140.70717	-441.23517	166.22571	-193.97002	-479.01285	265.83798	-130.90007	-444.52475	256.49991	-188.77036	-494.18436	71.22224	-116.54620	-465.34503	70.71870	-147.78134	-532.99811	33.69354	-150.37166	-377.97949	51.13844	-204.39780	-404.25418	33.79196	-159.34163	-321.38263	25.09474	19.38833	-613.11438	762.75909	-152.65828	-479.76471	70.97047	-92.49662	-451.82870	776.00995	-86.91157	-461.45645	496.07446	-95.97859	-471.44870	496.34567	-105.97242	-462.37943	496.37653	-97.79447	-446.54269	457.86188	-71.60766	-461.19669	457.65939	-95.09069	-493.85696	483.90494	-119.25979	-463.50409	458.41455	-89.10756	-458.11362	769.67914	-91.87875	-464.53641	776.17017	-95.26780	-458.25150	782.50092	-105.98680	-449.81891	734.82764	-95.99297	-458.88821	734.79675	-105.05999	-468.88046	735.06793	-124.24583	-459.97552	757.51184	-96.90540	-452.38718	496.10535	-123.06458	-319.38293	17.32424	-211.54768	-383.01608	-13.49479	-154.63185	-547.41888	-17.68438	-111.13786	-539.11438	-5.22209	-156.23608	-553.60315	76.93159	-165.61444	-508.65512	79.71045	-92.18768	-458.18256	776.09003	-118.19410	-505.90735	938.47919	-72.01549	-467.12036	806.50195	-166.01869	-420.75061	873.38654	-67.54775	-464.19812	744.19867	-97.02213	-462.42731	458.06213	-27.89876	-643.58813	901.80566	-109.74496	-433.69174	450.68646	-130.75278	-471.97241	146.64597	-137.17726	-487.20309	148.25151	-163.08759	-484.94681	151.87450	-161.60730	-441.67807	110.13731	-114.50528	-464.65524	80.64465	-139.83835	-496.20740	109.45080	-188.58583	-494.18066	76.77996	-55.28952	-462.55249	452.06958	-91.21708	-476.96848	457.87909	-127.14463	-491.38443	463.68857	-112.50315	-454.98892	380.78113	-97.37109	-461.57001	378.90097	-103.79557	-476.80066	380.50650	-126.11314	-473.10278	383.54855	-145.88484	-465.39136	148.52611	-173.39731	-398.25143	666.61609	-152.75067	-450.13931	259.83185	24.00000	2.00000	2006.00000	1.86987	-475.96964	891.17267	6.57488	-451.31033	783.49457	1.86987	-475.96964	891.17267	0.00000	0.00000	0.00000	0.00000	0.00000	0.00000	-16.47279	-503.06226	1507.21411	-97.02213	-462.42731	458.06213	-147.78134	-532.99811	33.69354	-152.65828	-479.76471	70.97047	-6.43083	-370.90460	882.34070	122.55708	-459.99127	457.64453	191.14836	-521.02039	39.93257	176.74426	-462.98328	69.31772	-13.33100	-503.83182	1321.99719	0.00000	0.00000	0.00000	-6.43083	-370.90460	882.34070	176.74426	-462.98328	69.31772	104.63470	-437.80298	790.55316	110.53787	-459.20319	497.17111	121.54482	-468.07764	498.15402	130.44359	-457.04660	498.09903	120.80026	-443.40338	456.77957	96.01613	-462.86673	456.40732	124.69315	-491.92279	486.03476	145.78043	-457.47525	458.72708	102.36421	-445.10861	784.07941	106.04016	-451.07327	791.24512	101.67542	-444.48651	797.40961	119.79237	-435.06958	747.67566	110.89361	-446.10062	747.73071	121.90056	-454.97504	748.71362	139.54681	-441.77698	772.45038	119.43664	-448.17215	497.11612	129.05632	-318.03561	5.53195	230.93764	-364.74323	-10.80349	206.70790	-537.06757	-9.22416	161.24947	-536.75098	-2.19342	198.03165	-538.05200	85.20441	198.43178	-492.05664	85.72068	105.33743	-444.43814	790.89911	113.28065	-489.80060	955.83362	82.30101	-456.38254	818.07153	158.04594	-398.20114	897.68274	86.76875	-453.46030	755.76831	122.55708	-459.99127	457.64453	49.25949	-638.21918	907.59045	126.85046	-428.84839	450.08545	154.31902	-461.18210	145.35684	164.70320	-474.08591	146.90529	189.08244	-464.79044	150.23555	175.33759	-423.68069	108.40973	135.95074	-458.85434	79.43002	169.31952	-482.18579	108.02074	215.37029	-466.99255	74.73849	82.32624	-471.58337	452.12003	120.95226	-475.59262	457.54077	159.57829	-479.60190	462.96155	134.59813	-448.88864	380.05695	121.80671	-459.38690	378.35294	132.19090	-472.29071	379.90137	152.70753	-462.59430	382.68954	167.11044	-450.68387	147.06088	206.85838	-426.34338	653.78632	174.69244	-440.41989	244.41693	10.17056	-581.03467	900.00464	5.30731	-418.46091	769.91376	-13.33100	-503.83182	1321.99719	-80.00000	0.00000	0.00000	-80.00000	0.00000	0.00000	-19.35240	-579.30548	1483.15820	-100.90698	-382.52805	457.05478	-227.78134	-532.99811	33.69354	-182.31725	-405.47156	71.90581	-11.47349	-291.33600	875.75201	114.14272	-380.54294	453.50186	111.14836	-521.02039	39.93257	184.93001	-383.40494	69.84682	-13.29940	-423.99866	1327.16125	200.00000	0.00000	0.00000	0.00000	0.00000	80.00000	0.00000	0.00000	80.00000	-18.18756	-527.06921	1583.50781	-95.80627	-461.35977	538.04578	-147.78134	-532.99811	113.69354	-141.28812	-476.22153	150.07904	-12.82147	-364.72620	961.84534	118.43338	-456.26666	537.45129	191.14836	-521.02039	119.93257	165.68849	-462.37283	148.54774	-16.14603	-508.99158	1401.78101	0.00000	200.00000	0.00000	0.00000	80.00000	0.00000	0.00000	80.00000	0.00000	-96.40256	-499.80042	1506.44397	-17.12576	-458.55856	456.79599	-147.78134	-452.99811	33.69354	-79.23441	-450.30328	59.09782	73.15391	-365.36682	888.30743	202.00639	-451.38370	461.34802	191.14836	-441.02039	39.93257	255.55266	-471.16339	80.37769	66.61945	-504.04504	1324.80432	0.00000	0.00000	200.00000	-0.10099	0.10015	0.07719	0.06180	-0.06848	-0.00765	-247.78134	-532.99811	33.69354	-147.78134	-432.99811	33.69354	91.14836	-521.02039	39.93257	191.14836	-421.02039	39.93257 
15	0.070	-97.03674	-462.45584	458.07651	220.92413	-462.57452	449.19748	-97.17827	-144.50751	448.75891	-88.15803	-453.13791	775.90088	-156.26544	-481.21817	71.56377	193.02780	-481.84128	25.56694	-164.76649	-123.94168	2.16795	-109.49738	-411.30655	425.76660	-6.43638	-370.90369	882.35791	231.83981	-370.95078	881.78906	-6.39835	-172.34029	881.85114	-5.96225	-370.39703	1080.92078	122.52649	-459.99045	457.63205	456.60547	-459.99731	457.50049	122.53331	-125.91147	457.48560	122.65805	-459.84399	791.71106	172.86082	-462.55780	68.79043	533.64740	-462.51590	121.58916	165.91452	-101.06015	115.96945	120.52103	-510.24542	426.47897	-51.01079	-419.13489	1531.58020	26.69901	-419.40860	1535.68250	-82.21179	-582.84882	1481.85681	40.71083	-590.77533	1479.69128	-14.33455	-574.52338	1345.73218	-7.38209	-565.50275	1081.41541	-12.31559	-433.15842	1298.25720	-12.94628	-360.04315	1196.26978	132.54213	-561.05359	1258.00586	-160.75826	-381.65717	870.78784	147.88550	-360.15018	893.92786	-37.09820	-579.16437	898.57245	57.44505	-582.88757	901.43097	121.71040	-483.94565	1326.02441	257.56873	-431.08362	1310.88574	381.94839	-372.49527	1277.33594	356.80145	-288.91492	1231.16528	484.29022	-306.98154	1265.65259	568.28882	-243.63455	1348.89368	577.46759	-228.87315	1277.61450	624.29010	-235.34792	1314.78906	-165.05109	-481.63980	1312.82068	-292.88635	-397.38385	1275.37671	-365.40121	-309.13925	1242.41089	-335.34854	-254.29968	1213.99121	-462.70526	-238.61436	1251.57251	-549.44415	-138.22981	1323.36987	-557.98822	-150.27057	1251.47485	-605.24860	-129.00223	1289.73584	230.88338	-440.25769	744.54773	203.19463	-459.08124	561.83130	187.01726	-379.79367	655.46149	216.01382	-450.13309	656.37244	200.28708	-451.33633	465.39011	44.76589	-468.64447	449.87396	138.87437	-427.25342	332.82678	166.04169	-430.28220	149.08252	219.20512	-463.73083	251.34114	154.80836	-435.01862	240.75841	216.38586	-467.02963	70.23004	137.06071	-458.88510	68.43513	191.26010	-521.21210	39.93330	164.59941	-365.17633	46.00754	220.20586	-387.82452	37.12072	175.78876	-306.70038	27.71461	-200.51779	-413.24011	759.16888	-174.54593	-425.76706	570.83203	-145.15897	-355.79474	669.85938	-187.76474	-415.97357	665.28394	-177.20789	-466.22983	466.27847	-16.86557	-458.68182	449.87451	-123.60651	-430.18945	347.45383	-140.73439	-441.22977	166.23022	-193.97438	-479.01758	265.83295	-130.89531	-444.53052	256.51944	-188.78775	-494.19650	71.24054	-116.55749	-465.35669	70.72520	-147.85486	-533.04590	33.74601	-150.36919	-377.97546	51.13334	-204.38876	-404.27310	33.81646	-159.35802	-321.38486	25.09084	19.40851	-613.11047	762.75006	-152.67262	-479.77661	70.98287	-92.49570	-451.83102	776.01508	-86.92463	-461.48422	496.08734	-95.99390	-471.47394	496.35977	-105.98521	-462.40237	496.39026	-97.80510	-446.57144	457.87488	-71.62261	-461.23160	457.67261	-95.11211	-493.88293	483.92126	-119.27408	-463.52704	458.42990	-89.10856	-458.11716	769.68481	-91.88100	-464.53851	776.17633	-95.26815	-458.25238	782.50659	-105.98672	-449.82147	734.83417	-95.99541	-458.89304	734.80371	-105.06467	-468.88275	735.07611	-124.24689	-459.97131	757.51941	-96.91595	-452.41266	496.11783	-123.02646	-319.43079	17.28870	-211.55589	-383.02536	-13.47683	-154.73482	-547.46204	-17.62292	-111.23199	-539.17749	-5.17821	-156.31116	-553.60950	76.99592	-165.66307	-508.65512	79.76083	-92.18835	-458.18478	776.09570	-118.18975	-505.92868	938.48773	-72.01416	-467.12378	806.50800	-166.02571	-420.76776	873.40002	-67.54695	-464.19556	744.20239	-97.03673	-462.45581	458.07648	-27.87642	-643.60248	901.80011	-109.75884	-433.71954	450.70187	-130.76703	-471.98785	146.65894	-137.19191	-487.21844	148.26387	-163.10226	-484.96164	151.88692	-161.62077	-441.69116	110.15131	-114.51914	-464.66846	80.65775	-139.85315	-496.22119	109.46269	-188.60066	-494.19193	76.79173	-55.30399	-462.58185	452.08401	-91.23203	-476.99716	457.89285	-127.16006	-491.41251	463.70172	-112.51743	-455.01398	380.79550	-97.38550	-461.59540	378.91510	-103.81038	-476.82599	380.52005	-126.12792	-473.12766	383.56219	-145.89897	-465.40643	148.53932	-173.40756	-398.26730	666.62012	-152.77176	-450.14560	259.83899	24.00000	2.00000	2006.00000	1.86852	-475.96481	891.17981	6.57765	-451.30252	783.50049	1.86852	-475.96481	891.17981	0.00000	0.00000	0.00000	0.00000	0.00000	0.00000	-16.45319	-503.04190	1507.20264	-97.03673	-462.45581	458.07648	-147.85486	-533.04590	33.74601	-152.67262	-479.77661	70.98287	-6.43638	-370.90369	882.35785	122.52648	-459.99042	457.63202	191.26010	-521.21210	39.93330	176.72330	-462.95737	69.33258	-13.32507	-503.84088	1321.99463	0.00000	0.00000	0.00000	-6.43638	-370.90369	882.35785	176.72330	-462.95737	69.33258	104.63974	-437.78494	790.55902	110.51128	-459.20203	497.16211	121.52041	-468.07504	498.14426	130.41780	-457.04196	498.08752	120.76671	-443.40198	456.76633	95.98447	-462.87048	456.39813	124.67140	-491.92163	486.02533	145.75075	-457.47034	458.71170	102.36955	-445.09171	784.08563	106.04755	-451.05566	791.25159	101.68224	-444.46890	797.41656	119.79256	-435.05130	747.67731	110.89517	-446.08441	747.73401	121.90429	-454.95743	748.71619	139.55214	-441.75439	772.45129	119.40868	-448.16895	497.10541	129.00117	-318.08859	5.55286	230.91782	-364.71332	-10.79898	206.82718	-537.05719	-9.22423	161.36949	-536.77759	-2.18712	198.16492	-538.05298	85.20551	198.52806	-492.05734	85.72385	105.34365	-444.42029	790.90533	113.29306	-489.79843	955.84271	82.30772	-456.37030	818.07800	158.05022	-398.18542	897.69702	86.77493	-453.44205	755.77240	122.52648	-459.99042	457.63202	49.28452	-638.22577	907.58508	126.80928	-428.84799	450.07413	154.29652	-461.16516	145.36601	164.68436	-474.06464	146.91444	189.05872	-464.76160	150.24541	175.30219	-423.65851	108.42262	135.93076	-458.84265	79.44300	169.30432	-482.16174	108.03249	215.34795	-466.95340	74.75414	82.30240	-471.59525	452.10645	120.92706	-475.59128	457.52798	159.55171	-479.58731	462.94955	134.56541	-448.88315	380.05017	121.77845	-459.38498	378.34567	132.16628	-472.28445	379.89410	152.67818	-462.58182	382.68292	167.08350	-450.66333	147.07050	207.03175	-426.37753	653.94684	174.70706	-440.42215	244.41681	10.17342	-581.02600	900.00171	5.30650	-418.45099	769.92200	-13.32507	-503.84088	1321.99463	-80.00000	0.00000	0.00000	-80.00000	0.00000	0.00000	-19.33768	-579.29211	1483.16968	-100.90173	-382.55569	457.06235	-227.85486	-533.04590	33.74601	-182.32968	-405.48273	71.92107	-11.48744	-291.33505	875.77606	114.09843	-380.54370	453.48584	111.26010	-521.21210	39.93330	184.88210	-383.37625	69.86327	-13.30748	-424.00787	1327.16089	200.00000	0.00000	0.00000	0.00000	0.00000	80.00000	0.00000	0.00000	80.00000	-18.17002	-527.02600	1583.50354	-95.81734	-461.38162	538.06000	-147.85486	-533.04590	113.74600	-141.30254	-476.23682	150.09160	-12.82714	-364.73285	961.86304	118.41180	-456.26193	537.43909	191.26010	-521.21210	119.93330	165.66483	-462.35199	148.56227	-16.13881	-509.00333	1401.77832	0.00000	200.00000	0.00000	0.00000	80.00000	0.00000	0.00000	80.00000	0.00000	-96.38273	-499.77502	1506.43115	-17.13945	-458.60709	456.80673	-147.85486	-453.04590	33.74601	-79.24796	-450.31659	59.11154	73.14782	-365.35806	888.32452	201.97481	-451.36942	461.32544	191.26010	-441.21210	39.93330	255.53410	-471.11096	80.39489	66.62543	-504.04013	1324.80139	0.00000	0.00000	200.00000	-0.10099	0.10015	0.07719	0.06180	-0.06848	-0.00765	-247.85486	-533.04590	33.74601	-147.85486	-433.04590	33.74601	91.26010	-521.21210	39.93330	191.26010	-421.21210	39.93330 
